<svg width="223" height="275" xmlns="http://www.w3.org/2000/svg" xmlns:xlink="http://www.w3.org/1999/xlink" overflow="hidden"><defs><clipPath id="clip0"><rect x="247" y="68" width="223" height="275"/></clipPath></defs><g clip-path="url(#clip0)" transform="translate(-247 -68)"><path d="M249 80.2215C249 74.024 254.024 69 260.221 69L456.779 69C462.976 69 468 74.024 468 80.2215L468 329.779C468 335.976 462.976 341 456.779 341L260.221 341C254.024 341 249 335.976 249 329.779Z" stroke="#548235" stroke-width="2" stroke-miterlimit="8" fill="#275732" fill-rule="evenodd"/><rect x="331" y="77" width="105" height="57" fill="#7F7F7F"/><path d="M335 165.592C335 163.056 337.056 161 339.592 161L430.408 161C432.944 161 435 163.056 435 165.592L435 332.408C435 334.944 432.944 337 430.408 337L339.592 337C337.056 337 335 334.944 335 332.408Z" fill="#0D0D0D" fill-rule="evenodd"/><rect x="354" y="161" width="61" height="67" fill="#A6A6A6"/><rect x="370" y="312" width="28" height="27" fill="#A6A6A6"/><rect x="351" y="139" width="67" height="22" fill="#0D0D0D"/><rect x="349" y="312" width="11" height="15" fill="#A6A6A6"/><rect x="409" y="312" width="11" height="15" fill="#A6A6A6"/><rect x="387" y="252" width="11" height="15" fill="#A6A6A6"/><rect x="375" y="279" width="18" height="17" fill="#404040"/><path d="M440 87C440 81.4771 444.701 77 450.5 77 456.299 77 461 81.4771 461 87 461 92.5228 456.299 97 450.5 97 444.701 97 440 92.5228 440 87Z" fill="#FFFFFF" fill-rule="evenodd"/><path d="M440 326.5C440 320.701 444.701 316 450.5 316 456.299 316 461 320.701 461 326.5 461 332.299 456.299 337 450.5 337 444.701 337 440 332.299 440 326.5Z" fill="#FFFFFF" fill-rule="evenodd"/><path d="M255 326.5C255 320.701 259.477 316 265 316 270.523 316 275 320.701 275 326.5 275 332.299 270.523 337 265 337 259.477 337 255 332.299 255 326.5Z" fill="#FFFFFF" fill-rule="evenodd"/><path d="M255 87C255 81.4771 259.477 77 265 77 270.523 77 275 81.4771 275 87 275 92.5228 270.523 97 265 97 259.477 97 255 92.5228 255 87Z" fill="#FFFFFF" fill-rule="evenodd"/><path d="M255 129.5C255 123.701 259.477 119 265 119 270.523 119 275 123.701 275 129.5 275 135.299 270.523 140 265 140 259.477 140 255 135.299 255 129.5Z" fill="#FFFFFF" fill-rule="evenodd"/><path d="M255 208.5C255 202.701 259.477 198 265 198 270.523 198 275 202.701 275 208.5 275 214.299 270.523 219 265 219 259.477 219 255 214.299 255 208.5Z" fill="#FFFFFF" fill-rule="evenodd"/><path d="M255 287.5C255 281.701 259.477 277 265 277 270.523 277 275 281.701 275 287.5 275 293.299 270.523 298 265 298 259.477 298 255 293.299 255 287.5Z" fill="#FFFFFF" fill-rule="evenodd"/><rect x="282" y="291" width="47" height="21" fill="#D0BEA1"/><rect x="282" y="317" width="42" height="21" fill="#F2F2F2"/><rect x="282" y="235" width="47" height="21" fill="#D0BEA1"/><rect x="282" y="261" width="42" height="21" fill="#F2F2F2"/><rect x="282" y="178" width="47" height="21" fill="#D0BEA1"/><rect x="282" y="204" width="42" height="20" fill="#F2F2F2"/><rect x="282" y="96" width="47" height="21" fill="#D0BEA1"/><rect x="282" y="128" width="42" height="21" fill="#F2F2F2"/><text fill="#FFFFFF" font-family="Arial,Arial_MSFontService,sans-serif" font-weight="700" font-size="24" transform="translate(345.344 100)">ESP32</text><text fill="#FFFFFF" font-family="Arial,Arial_MSFontService,sans-serif" font-weight="700" font-size="24" transform="translate(346.677 129)">Devkit</text></g></svg>