<svg width="175" height="342" xmlns="http://www.w3.org/2000/svg" xmlns:xlink="http://www.w3.org/1999/xlink" overflow="hidden"><g transform="translate(-194 -32)"><rect x="231" y="364" width="8" height="9" fill="#ED7D31"/><rect x="195" y="267" width="8" height="49" fill="#ED7D31"/><rect x="360" y="267" width="8" height="49" fill="#ED7D31"/><path d="M200 49.5077C200 40.943 206.943 34 215.508 34L347.492 34C356.057 34 363 40.943 363 49.5077L363 353.492C363 362.057 356.057 369 347.492 369L215.508 369C206.943 369 200 362.057 200 353.492Z" stroke="#BFBFBF" stroke-width="4" stroke-miterlimit="8" fill="none" fill-rule="evenodd"/><path d="M201 51.3174C201 42.8578 207.858 36 216.317 36L346.683 36C355.142 36 362 42.8578 362 51.3174L362 351.683C362 360.142 355.142 367 346.683 367L216.317 367C207.858 367 201 360.142 201 351.683Z" stroke="#FFFFFF" stroke-width="4" stroke-miterlimit="8" fill-rule="evenodd"/><rect x="220" y="63" width="123" height="260" fill="#595959"/><text fill="#FFFFFF" font-family="Arial,Arial_MSFontService,sans-serif" font-weight="700" font-size="19" transform="translate(252.247 118)">LilyGo</text><text fill="#FFFFFF" font-family="Arial,Arial_MSFontService,sans-serif" font-weight="700" font-size="19" transform="translate(225.347 141)">T</text><text fill="#FFFFFF" font-family="Arial,Arial_MSFontService,sans-serif" font-weight="700" font-size="19" transform="translate(235.653 141)">-</text><text fill="#FFFFFF" font-family="Arial,Arial_MSFontService,sans-serif" font-weight="700" font-size="19" transform="translate(241.82 141)">Display</text><text fill="#FFFFFF" font-family="Arial,Arial_MSFontService,sans-serif" font-weight="700" font-size="19" transform="translate(307.987 141)">-</text><text fill="#FFFFFF" font-family="Arial,Arial_MSFontService,sans-serif" font-weight="700" font-size="19" transform="translate(314.153 141)">S3</text><text fill="#FFFFFF" font-family="Arial,Arial_MSFontService,sans-serif" font-weight="700" font-size="19" transform="translate(265.58 163)">Pro</text><text fill="#FFFFFF" font-family="Arial,Arial_MSFontService,sans-serif" font-weight="700" font-size="16" transform="translate(226.58 183)">( K233 / K255 )</text><path d="M273 341.5C273 336.806 276.806 333 281.5 333 286.194 333 290 336.806 290 341.5 290 346.194 286.194 350 281.5 350 276.806 350 273 346.194 273 341.5Z" stroke="#ED7D31" stroke-width="4" stroke-miterlimit="8" fill="none" fill-rule="evenodd"/></g></svg>