<svg width="104" height="213" xmlns="http://www.w3.org/2000/svg" xmlns:xlink="http://www.w3.org/1999/xlink" overflow="hidden"><g transform="translate(-1056 -428)"><path d="M1058.5 440.5C1058.5 434.977 1062.98 430.5 1068.5 430.5L1148.5 430.5C1154.02 430.5 1158.5 434.977 1158.5 440.5L1158.5 620.5C1158.5 626.023 1154.02 630.5 1148.5 630.5L1068.5 630.5C1062.98 630.5 1058.5 626.023 1058.5 620.5Z" stroke="#FFC611" stroke-width="3" stroke-miterlimit="8" fill="#FFD03B" fill-rule="evenodd"/><rect x="1075" y="445" width="66" height="103" fill="#595959"/><path d="M1078.5 578.667C1078.5 574.709 1081.71 571.5 1085.67 571.5L1130.33 571.5C1134.29 571.5 1137.5 574.709 1137.5 578.667L1137.5 607.333C1137.5 611.291 1134.29 614.5 1130.33 614.5L1085.67 614.5C1081.71 614.5 1078.5 611.291 1078.5 607.333Z" stroke="#404040" stroke-width="1.33333" stroke-miterlimit="8" fill="#FFD03B" fill-rule="evenodd"/><rect x="1075" y="607" width="66" height="9" fill="#FFD03B"/><text fill="#CC9B00" font-family="Meiryo,Meiryo_MSFontService,sans-serif" font-weight="400" font-size="37" transform="translate(1080.5 605)">M5</text><text fill="#FFFFFF" font-family="Arial,Arial_MSFontService,sans-serif" font-weight="700" font-size="16" transform="translate(1077.42 494)">M5Stick</text><text fill="#FFFFFF" font-family="Arial,Arial_MSFontService,sans-serif" font-weight="700" font-size="16" transform="translate(1078.25 513)">C Plus2</text></g></svg>