<svg width="208" height="208" xmlns="http://www.w3.org/2000/svg" xmlns:xlink="http://www.w3.org/1999/xlink" overflow="hidden"><g transform="translate(-497 -17)"><path d="M499 38.3133C499 27.6469 507.647 19 518.313 19L683.687 19C694.353 19 703 27.6469 703 38.3133L703 202.685C703 213.352 694.353 221.999 683.687 221.999L518.313 221.999C507.647 221.999 499 213.352 499 202.685Z" stroke="#BFBFBF" stroke-width="4" stroke-miterlimit="8" fill="none" fill-rule="evenodd"/><path d="M501 40.028C501 29.5191 509.519 21 520.028 21L681.972 21C692.481 21 701 29.5191 701 40.028L701 201.972C701 212.481 692.481 221 681.972 221L520.028 221C509.519 221 501 212.481 501 201.972Z" stroke="#FFFFFF" stroke-width="4" stroke-miterlimit="8" fill-rule="evenodd"/><rect x="521" y="62" width="159" height="112" fill="#595959"/><text fill="#FFFFFF" font-family="Arial,Arial_MSFontService,sans-serif" font-weight="700" font-size="24" transform="translate(552.006 110)">M5Stack</text><text fill="#FFFFFF" font-family="Arial,Arial_MSFontService,sans-serif" font-weight="700" font-size="24" transform="translate(566.673 139)">Core2</text><path d="M550.5 189C550.5 185.962 552.739 183.5 555.5 183.5 558.261 183.5 560.5 185.962 560.5 189 560.5 192.038 558.261 194.5 555.5 194.5 552.739 194.5 550.5 192.038 550.5 189Z" stroke="#FFC000" stroke-width="1.33333" stroke-miterlimit="8" fill="none" fill-rule="evenodd"/><path d="M595.5 189C595.5 185.962 597.963 183.5 601 183.5 604.038 183.5 606.5 185.962 606.5 189 606.5 192.038 604.038 194.5 601 194.5 597.963 194.5 595.5 192.038 595.5 189Z" stroke="#FFC000" stroke-width="1.33333" stroke-miterlimit="8" fill="none" fill-rule="evenodd"/><path d="M641.5 189C641.5 185.962 643.963 183.5 647 183.5 650.038 183.5 652.5 185.962 652.5 189 652.5 192.038 650.038 194.5 647 194.5 643.963 194.5 641.5 192.038 641.5 189Z" stroke="#FFC000" stroke-width="1.33333" stroke-miterlimit="8" fill="none" fill-rule="evenodd"/></g></svg>