<svg width="206" height="206" xmlns="http://www.w3.org/2000/svg" xmlns:xlink="http://www.w3.org/1999/xlink" overflow="hidden"><defs><clipPath id="clip0"><rect x="537" y="52" width="206" height="206"/></clipPath></defs><g clip-path="url(#clip0)" transform="translate(-537 -52)"><path d="M540 74.028C540 63.5191 548.519 55 559.028 55L720.972 55C731.481 55 740 63.5191 740 74.028L740 235.972C740 246.481 731.481 255 720.972 255L559.028 255C548.519 255 540 246.481 540 235.972Z" stroke="#474443" stroke-width="4" stroke-miterlimit="8" fill-rule="evenodd"/><rect x="560" y="96" width="159" height="112" fill="#595959"/><path d="M625 226.343C625 225.601 625.601 225 626.343 225L653.657 225C654.399 225 655 225.601 655 226.343L655 241.657C655 242.399 654.399 243 653.657 243L626.343 243C625.601 243 625 242.399 625 241.657Z" fill="#F2F2F2" fill-rule="evenodd"/><path d="M579 226.343C579 225.601 579.601 225 580.343 225L607.657 225C608.399 225 609 225.601 609 226.343L609 241.657C609 242.399 608.399 243 607.657 243L580.343 243C579.601 243 579 242.399 579 241.657Z" fill="#F2F2F2" fill-rule="evenodd"/><path d="M671 226.343C671 225.601 671.601 225 672.343 225L699.657 225C700.399 225 701 225.601 701 226.343L701 241.657C701 242.399 700.399 243 699.657 243L672.343 243C671.601 243 671 242.399 671 241.657Z" fill="#F2F2F2" fill-rule="evenodd"/><text fill="#FFFFFF" font-family="Arial,Arial_MSFontService,sans-serif" font-weight="700" font-size="24" transform="translate(591.077 144)">M5Stack</text><text fill="#FFFFFF" font-family="Arial,Arial_MSFontService,sans-serif" font-weight="700" font-size="24" transform="translate(607.744 173)">Basic</text></g></svg>