<svg width="354" height="727" xmlns="http://www.w3.org/2000/svg" xmlns:xlink="http://www.w3.org/1999/xlink" xml:space="preserve" overflow="hidden"><g transform="translate(-3630 -1474)"><path d="M3635 1513.4C3635 1494.4 3650.4 1479 3669.4 1479L3944.6 1479C3963.6 1479 3979 1494.4 3979 1513.4L3979 2132.6C3979 2151.6 3963.6 2167 3944.6 2167L3669.4 2167C3650.4 2167 3635 2151.6 3635 2132.6Z" stroke="#BF9000" stroke-width="10.3125" stroke-miterlimit="8" fill="#FFD966" fill-rule="evenodd"/><rect x="3694" y="1528" width="227" height="356" fill="#595959"/><path d="M3705.5 1987.5C3705.5 1973.69 3716.69 1962.5 3730.5 1962.5L3885.5 1962.5C3899.31 1962.5 3910.5 1973.69 3910.5 1987.5L3910.5 2087.5C3910.5 2101.31 3899.31 2112.5 3885.5 2112.5L3730.5 2112.5C3716.69 2112.5 3705.5 2101.31 3705.5 2087.5Z" stroke="#404040" stroke-width="4.58333" stroke-miterlimit="8" fill="#FFD966" fill-rule="evenodd"/><rect x="3695" y="2086" width="226" height="33" fill="#FFD966"/><text fill="#BF9000" font-family="Meiryo,Meiryo_MSFontService,sans-serif" font-weight="400" font-size="128" transform="matrix(1 0 0 1 3714.22 2078)">M5</text><text fill="#FFFFFF" font-family="Arial,Arial_MSFontService,sans-serif" font-weight="700" font-size="55" transform="matrix(1 0 0 1 3703.62 1694)">M5Stick</text><text fill="#FFFFFF" font-family="Arial,Arial_MSFontService,sans-serif" font-weight="700" font-size="55" transform="matrix(1 0 0 1 3706.49 1760)">C Plus2</text></g></svg>