<svg width="142" height="146" xmlns="http://www.w3.org/2000/svg" xmlns:xlink="http://www.w3.org/1999/xlink" overflow="hidden"><g transform="translate(-1039 -249)"><rect x="1146" y="389" width="13" height="5" fill="#FFFF00"/><rect x="1060" y="389" width="13" height="5"/><path d="M0 5 1.11615 0 16 0 14.8838 5Z" fill="#FFFF00" fill-rule="evenodd" transform="matrix(-1 0 0 1 1083 389)"/><path d="M0 5 1.11616 0 15 0 13.8838 5Z" fill-rule="evenodd" transform="matrix(-1 0 0 1 1152 389)"/><path d="M0 5 1.11615 0 16 0 14.8838 5Z" fill="#FFFF00" fill-rule="evenodd" transform="matrix(-1 0 0 1 1112 389)"/><path d="M0 5 1.11615 0 16 0 14.8838 5Z" fill-rule="evenodd" transform="matrix(-1 0 0 1 1097 389)"/><path d="M0 5 1.11615 0 16 0 14.8838 5Z" fill="#FFFF00" fill-rule="evenodd" transform="matrix(-1 0 0 1 1141 389)"/><path d="M0 5 1.11615 0 16 0 14.8838 5Z" fill-rule="evenodd" transform="matrix(-1 0 0 1 1126 389)"/><path d="M1041.5 264.629C1041.5 257.378 1047.38 251.5 1054.63 251.5L1166.37 251.5C1173.62 251.5 1179.5 257.378 1179.5 264.629L1179.5 376.371C1179.5 383.622 1173.62 389.5 1166.37 389.5L1054.63 389.5C1047.38 389.5 1041.5 383.622 1041.5 376.371Z" stroke="#E7E6E6" stroke-width="3" stroke-miterlimit="8" fill="#FFFFFF" fill-rule="evenodd"/><rect x="1061" y="275" width="98" height="91" fill="#0D0D0D"/><text fill="#FFFFFF" font-family="Arial,Arial_MSFontService,sans-serif" font-weight="700" font-size="19" transform="translate(1096.97 313)">M5</text><text fill="#FFFFFF" font-family="Arial,Arial_MSFontService,sans-serif" font-weight="700" font-size="19" transform="translate(1072.05 336)">Atom S3</text><path d="M1061 275.668C1061 273.642 1062.64 272 1064.67 272L1155.33 272C1157.36 272 1159 273.642 1159 275.668L1159 362.332C1159 364.358 1157.36 366 1155.33 366L1064.67 366C1062.64 366 1061 364.358 1061 362.332Z" stroke="#7F7F7F" stroke-width="6" stroke-miterlimit="8" fill="none" fill-rule="evenodd"/></g></svg>