<svg width="277" height="206" xmlns="http://www.w3.org/2000/svg" xmlns:xlink="http://www.w3.org/1999/xlink" overflow="hidden"><defs><clipPath id="clip0"><rect x="877" y="52" width="277" height="206"/></clipPath></defs><g clip-path="url(#clip0)" transform="translate(-877 -52)"><path d="M1116 105 1153 124.597 1153 185.402 1116 205Z" fill="#E2AC00" fill-rule="evenodd"/><path d="M1137 155C1137 158.314 1134.09 161 1130.5 161 1126.91 161 1124 158.314 1124 155 1124 151.686 1126.91 149 1130.5 149 1134.09 149 1137 151.686 1137 155Z" fill="#FFFFFF" fill-rule="evenodd"/><rect x="1121" y="171" width="7" height="16" fill="#FFFFFF"/><rect x="1121" y="123" width="7" height="16" fill="#FFFFFF"/><path d="M915 205 878 185.403 878 124.597 915 105Z" fill="#E2AC00" fill-rule="evenodd"/><path d="M894 155C894 151.686 896.686 149 900 149 903.314 149 906 151.686 906 155 906 158.314 903.314 161 900 161 896.686 161 894 158.314 894 155Z" fill="#FFFFFF" fill-rule="evenodd"/><rect x="903" y="123" width="7" height="16" fill="#FFFFFF"/><rect x="903" y="171" width="7" height="16" fill="#FFFFFF"/><path d="M916 74.028C916 63.5191 924.519 55 935.028 55L1096.97 55C1107.48 55 1116 63.5191 1116 74.028L1116 235.972C1116 246.481 1107.48 255 1096.97 255L935.028 255C924.519 255 916 246.481 916 235.972Z" stroke="#FFC000" stroke-width="4" stroke-miterlimit="8" fill-rule="evenodd"/><rect x="936" y="96" width="159" height="112" fill="#595959"/><text fill="#FFFFFF" font-family="Arial,Arial_MSFontService,sans-serif" font-weight="700" font-size="24" transform="translate(967.24 144)">M5Stack</text><text fill="#FFFFFF" font-family="Arial,Arial_MSFontService,sans-serif" font-weight="700" font-size="24" transform="translate(980.133 173)">Tough</text></g></svg>