<svg width="104" height="213" xmlns="http://www.w3.org/2000/svg" xmlns:xlink="http://www.w3.org/1999/xlink" overflow="hidden"><defs><clipPath id="clip0"><rect x="964" y="358" width="104" height="213"/></clipPath></defs><g clip-path="url(#clip0)" transform="translate(-964 -358)"><path d="M966.5 370.5C966.5 364.977 970.977 360.5 976.5 360.5L1056.5 360.5C1062.02 360.5 1066.5 364.977 1066.5 370.5L1066.5 550.5C1066.5 556.023 1062.02 560.5 1056.5 560.5L976.5 560.5C970.977 560.5 966.5 556.023 966.5 550.5Z" stroke="#C55A11" stroke-width="3" stroke-miterlimit="8" fill="#EA5B24" fill-rule="evenodd"/><rect x="983" y="374" width="66" height="104" fill="#595959"/><path d="M986.5 508.667C986.5 504.709 989.709 501.5 993.667 501.5L1039.33 501.5C1043.29 501.5 1046.5 504.709 1046.5 508.667L1046.5 537.333C1046.5 541.291 1043.29 544.5 1039.33 544.5L993.667 544.5C989.709 544.5 986.5 541.291 986.5 537.333Z" stroke="#404040" stroke-width="1.33333" stroke-miterlimit="8" fill="#EA5B24" fill-rule="evenodd"/><rect x="983" y="536" width="66" height="10" fill="#EA5B24"/><text fill="#C34513" font-family="Meiryo,Meiryo_MSFontService,sans-serif" font-weight="400" font-size="37" transform="translate(988.823 535)">M5</text><text fill="#FFFFFF" font-family="Arial,Arial_MSFontService,sans-serif" font-weight="700" font-size="16" transform="translate(985.74 423)">M5Stick</text><text fill="#FFFFFF" font-family="Arial,Arial_MSFontService,sans-serif" font-weight="700" font-size="16" transform="translate(990.987 442)">C Plus</text></g></svg>