<svg width="142" height="145" xmlns="http://www.w3.org/2000/svg" xmlns:xlink="http://www.w3.org/1999/xlink" overflow="hidden"><g transform="translate(-35 -34)"><rect x="142" y="173" width="13" height="5" fill="#FFFF00"/><rect x="56" y="173" width="13" height="5"/><path d="M0 5 1.11615 0 16 0 14.8838 5Z" fill="#FFFF00" fill-rule="evenodd" transform="matrix(-1 0 0 1 79 173)"/><path d="M0 5 1.11615 0 16 0 14.8838 5Z" fill-rule="evenodd" transform="matrix(-1 0 0 1 149 173)"/><path d="M0 5 1.11615 0 16 0 14.8838 5Z" fill="#FFFF00" fill-rule="evenodd" transform="matrix(-1 0 0 1 108 173)"/><path d="M0 5 1.11615 0 16 0 14.8838 5Z" fill-rule="evenodd" transform="matrix(-1 0 0 1 93 173)"/><path d="M0 5 1.11615 0 16 0 14.8838 5Z" fill="#FFFF00" fill-rule="evenodd" transform="matrix(-1 0 0 1 137 173)"/><path d="M0 5 1.11615 0 16 0 14.8838 5Z" fill-rule="evenodd" transform="matrix(-1 0 0 1 122 173)"/><path d="M37.5001 49.5343C37.5001 42.3357 43.3357 36.5001 50.5343 36.5001L162.466 36.5001C169.664 36.5001 175.5 42.3357 175.5 49.5343L175.5 160.466C175.5 167.664 169.664 173.5 162.466 173.5L50.5343 173.5C43.3357 173.5 37.5001 167.664 37.5001 160.466Z" stroke="#7F7F7F" stroke-width="3" stroke-miterlimit="8" fill="#A6A6A6" fill-rule="evenodd"/><rect x="57" y="59" width="98" height="91" fill="#0D0D0D"/><text fill="#FFFFFF" font-family="Arial,Arial_MSFontService,sans-serif" font-weight="700" font-size="19" transform="translate(93.0856 97)">M5</text><text fill="#FFFFFF" font-family="Arial,Arial_MSFontService,sans-serif" font-weight="700" font-size="19" transform="translate(61.4189 120)">Atom S3R</text><path d="M57 59.7069C57 57.6597 58.6597 56 60.7069 56L151.293 56C153.34 56 155 57.6597 155 59.7069L155 147.293C155 149.34 153.34 151 151.293 151L60.7069 151C58.6597 151 57 149.34 57 147.293Z" stroke="#7F7F7F" stroke-width="6" stroke-miterlimit="8" fill="none" fill-rule="evenodd"/></g></svg>