<svg width="205" height="250" xmlns="http://www.w3.org/2000/svg" xmlns:xlink="http://www.w3.org/1999/xlink" overflow="hidden"><g transform="translate(-26 -316)"><path d="M69 317 73 317C79.6274 317 85 322.373 85 329L85 341 57 341 57 329C57 322.373 62.3726 317 69 317Z" fill="#929292" fill-rule="evenodd"/><path d="M63 331.5C63 327.358 66.5817 324 71 324 75.4183 324 79 327.358 79 331.5 79 335.642 75.4183 339 71 339 66.5817 339 63 335.642 63 331.5Z" fill="#FFFFFF" fill-rule="evenodd"/><path d="M184 317 188 317C194.627 317 200 322.373 200 329L200 341 172 341 172 329C172 322.373 177.373 317 184 317Z" fill="#929292" fill-rule="evenodd"/><path d="M178 331.5C178 327.358 181.582 324 186 324 190.418 324 194 327.358 194 331.5 194 335.642 190.418 339 186 339 181.582 339 178 335.642 178 331.5Z" fill="#FFFFFF" fill-rule="evenodd"/><path d="M188 565 184 565C177.373 565 172 559.627 172 553L172 541 200 541 200 553C200 559.627 194.627 565 188 565Z" fill="#929292" fill-rule="evenodd"/><path d="M194 550.5C194 554.642 190.418 558 186 558 181.582 558 178 554.642 178 550.5 178 546.358 181.582 543 186 543 190.418 543 194 546.358 194 550.5Z" fill="#FFFFFF" fill-rule="evenodd"/><path d="M73 565 69 565C62.3726 565 57 559.627 57 553L57 541 85 541 85 553C85 559.627 79.6274 565 73 565Z" fill="#929292" fill-rule="evenodd"/><path d="M79 550C79 554.418 75.4183 558 71 558 66.5817 558 63 554.418 63 550 63 545.582 66.5817 542 71 542 75.4183 542 79 545.582 79 550Z" fill="#FFFFFF" fill-rule="evenodd"/><path d="M28 360.028C28 349.519 36.5191 341 47.028 341L208.972 341C219.481 341 228 349.519 228 360.028L228 521.972C228 532.481 219.481 541 208.972 541L47.028 541C36.5191 541 28 532.481 28 521.972Z" stroke="#6C8987" stroke-width="4" stroke-miterlimit="8" fill-rule="evenodd"/><rect x="49" y="382" width="159" height="112" fill="#595959"/><text fill="#FFFFFF" font-family="Arial,Arial_MSFontService,sans-serif" font-weight="700" font-size="24" transform="translate(79.45 430)">M5Stack</text><text fill="#FFFFFF" font-family="Arial,Arial_MSFontService,sans-serif" font-weight="700" font-size="24" transform="translate(86.1166 459)">CoreS3</text><path d="M119.5 518.5C119.5 513.529 123.529 509.5 128.5 509.5 133.471 509.5 137.5 513.529 137.5 518.5 137.5 523.471 133.471 527.5 128.5 527.5 123.529 527.5 119.5 523.471 119.5 518.5Z" stroke="#ED7D31" stroke-width="1.33333" stroke-miterlimit="8" fill="none" fill-rule="evenodd"/><path d="M123 517.5C123 515.015 125.239 513 128 513 130.761 513 133 515.015 133 517.5 133 519.985 130.761 522 128 522 125.239 522 123 519.985 123 517.5Z" fill="#3B4451" fill-rule="evenodd"/><path d="M153 517.5C153 516.119 154.119 515 155.5 515 156.881 515 158 516.119 158 517.5 158 518.881 156.881 520 155.5 520 154.119 520 153 518.881 153 517.5Z" fill="#A6A6A6" fill-rule="evenodd"/><path d="M164 517.5C164 516.119 165.119 515 166.5 515 167.881 515 169 516.119 169 517.5 169 518.881 167.881 520 166.5 520 165.119 520 164 518.881 164 517.5Z" fill="#A6A6A6" fill-rule="evenodd"/></g></svg>