<svg width="206" height="205" xmlns="http://www.w3.org/2000/svg" xmlns:xlink="http://www.w3.org/1999/xlink" overflow="hidden"><defs><clipPath id="clip0"><rect x="537" y="339" width="206" height="205"/></clipPath></defs><g clip-path="url(#clip0)" transform="translate(-537 -339)"><path d="M540 360.028C540 349.519 548.519 341 559.028 341L720.972 341C731.481 341 740 349.519 740 360.028L740 521.972C740 532.481 731.481 541 720.972 541L559.028 541C548.519 541 540 532.481 540 521.972Z" stroke="#FFFFFF" stroke-width="4" stroke-miterlimit="8" fill-rule="evenodd"/><rect x="560" y="382" width="159" height="112" fill="#595959"/><text fill="#FFFFFF" font-family="Arial,Arial_MSFontService,sans-serif" font-weight="700" font-size="24" transform="translate(591.077 430)">M5Stack</text><text fill="#FFFFFF" font-family="Arial,Arial_MSFontService,sans-serif" font-weight="700" font-size="24" transform="translate(605.744 459)">Core2</text><path d="M589.5 509.5C589.5 506.739 591.739 504.5 594.5 504.5 597.261 504.5 599.5 506.739 599.5 509.5 599.5 512.261 597.261 514.5 594.5 514.5 591.739 514.5 589.5 512.261 589.5 509.5Z" stroke="#FFC000" stroke-width="1.33333" stroke-miterlimit="8" fill="none" fill-rule="evenodd"/><path d="M634.5 509.5C634.5 506.739 636.963 504.5 640 504.5 643.038 504.5 645.5 506.739 645.5 509.5 645.5 512.261 643.038 514.5 640 514.5 636.963 514.5 634.5 512.261 634.5 509.5Z" stroke="#FFC000" stroke-width="1.33333" stroke-miterlimit="8" fill="none" fill-rule="evenodd"/><path d="M680.5 509.5C680.5 506.739 682.963 504.5 686 504.5 689.038 504.5 691.5 506.739 691.5 509.5 691.5 512.261 689.038 514.5 686 514.5 682.963 514.5 680.5 512.261 680.5 509.5Z" stroke="#FFC000" stroke-width="1.33333" stroke-miterlimit="8" fill="none" fill-rule="evenodd"/></g></svg>