<svg width="206" height="205" xmlns="http://www.w3.org/2000/svg" xmlns:xlink="http://www.w3.org/1999/xlink" overflow="hidden"><g transform="translate(-390 -32)"><path d="M393 53.028C393 42.5191 401.519 34 412.028 34L573.972 34C584.481 34 593 42.5191 593 53.028L593 214.972C593 225.481 584.481 234 573.972 234L412.028 234C401.519 234 393 225.481 393 214.972Z" stroke="#E7E6E6" stroke-width="4" stroke-miterlimit="8" fill-rule="evenodd"/><rect x="413" y="75" width="159" height="112" fill="#595959"/><text fill="#FFFFFF" font-family="Arial,Arial_MSFontService,sans-serif" font-weight="700" font-size="24" transform="translate(444.01 123)">M5Stack</text><text fill="#FFFFFF" font-family="Arial,Arial_MSFontService,sans-serif" font-weight="700" font-size="24" transform="translate(431.343 152)">CoreS3</text><text fill="#FFFFFF" font-family="Arial,Arial_MSFontService,sans-serif" font-weight="700" font-size="24" transform="translate(522.01 152)">SE</text><path d="M484.5 211.5C484.5 206.529 488.53 202.5 493.5 202.5 498.471 202.5 502.5 206.529 502.5 211.5 502.5 216.471 498.471 220.5 493.5 220.5 488.53 220.5 484.5 216.471 484.5 211.5Z" stroke="#ED7D31" stroke-width="1.33333" stroke-miterlimit="8" fill="none" fill-rule="evenodd"/><path d="M488 210.5C488 208.015 490.015 206 492.5 206 494.985 206 497 208.015 497 210.5 497 212.985 494.985 215 492.5 215 490.015 215 488 212.985 488 210.5Z" fill="#3B4451" fill-rule="evenodd"/><path d="M473 218 470.603 218 464 211 470.603 204 473 204 466.397 211Z" fill="#ED7D31" fill-rule="evenodd"/><path d="M459 218 456.603 218 450 211 456.603 204 459 204 452.397 211Z" fill="#ED7D31" fill-rule="evenodd"/><path d="M0 0 2.39724 0 9 7 2.39724 14 0 14 6.60276 7Z" fill="#ED7D31" fill-rule="evenodd" transform="matrix(1 -1.22465e-16 -1.22465e-16 -1 527 218)"/><path d="M0 0 2.39724 0 9 7 2.39724 14 0 14 6.60276 7Z" fill="#ED7D31" fill-rule="evenodd" transform="matrix(1 -1.22465e-16 -1.22465e-16 -1 513 218)"/><path d="M435 210.5C435 209.119 436.119 208 437.5 208 438.881 208 440 209.119 440 210.5 440 211.881 438.881 213 437.5 213 436.119 213 435 211.881 435 210.5Z" fill="#A6A6A6" fill-rule="evenodd"/><path d="M545 210.5C545 209.119 546.119 208 547.5 208 548.881 208 550 209.119 550 210.5 550 211.881 548.881 213 547.5 213 546.119 213 545 211.881 545 210.5Z" fill="#A6A6A6" fill-rule="evenodd"/></g></svg>