<svg width="211" height="170" xmlns="http://www.w3.org/2000/svg" xmlns:xlink="http://www.w3.org/1999/xlink" overflow="hidden"><defs><clipPath id="clip0"><rect x="251" y="394" width="211" height="170"/></clipPath></defs><g clip-path="url(#clip0)" transform="translate(-251 -394)"><path d="M0 0 16.7823 0.000104987" stroke="#4472C4" stroke-width="3" stroke-linecap="square" stroke-linejoin="round" stroke-miterlimit="10" fill="none" fill-rule="evenodd" transform="matrix(-1 0 0 1 294.282 396.5)"/><path d="M0 0 16.7823 0.000104987" stroke="#4472C4" stroke-width="3" stroke-linecap="square" stroke-linejoin="round" stroke-miterlimit="10" fill="none" fill-rule="evenodd" transform="matrix(-1 0 0 1 326.282 396.5)"/><path d="M0 0 16.7823 0.000104987" stroke="#4472C4" stroke-width="3" stroke-linecap="square" stroke-linejoin="round" stroke-miterlimit="10" fill="none" fill-rule="evenodd" transform="matrix(-1 0 0 1 358.282 396.5)"/><path d="M252 406.614C252 402.409 255.409 399 259.614 399L452.386 399C456.591 399 460 402.409 460 406.614L460 554.386C460 558.591 456.591 562 452.386 562L259.614 562C255.409 562 252 558.591 252 554.386Z" stroke="#A6A6A6" stroke-width="2" stroke-miterlimit="8" fill="#F2F2F2" fill-rule="evenodd"/><path d="M259 410.539C259 406.928 261.928 404 265.539 404L447.461 404C451.072 404 454 406.928 454 410.539L454 537.461C454 541.072 451.072 544 447.461 544L265.539 544C261.928 544 259 541.072 259 537.461Z" fill="#262626" fill-rule="evenodd"/><path d="M268.5 550.5 268.5 556.25" stroke="#262626" stroke-width="3" stroke-linecap="round" stroke-linejoin="round" stroke-miterlimit="10" fill="none" fill-rule="evenodd"/><path d="M275.5 550.5 275.5 556.25" stroke="#262626" stroke-width="3" stroke-linecap="round" stroke-linejoin="round" stroke-miterlimit="10" fill="none" fill-rule="evenodd"/><path d="M282.5 550.5 282.5 556.25" stroke="#262626" stroke-width="3" stroke-linecap="round" stroke-linejoin="round" stroke-miterlimit="10" fill="none" fill-rule="evenodd"/><path d="M290.5 550.5 290.5 556.25" stroke="#262626" stroke-width="3" stroke-linecap="round" stroke-linejoin="round" stroke-miterlimit="10" fill="none" fill-rule="evenodd"/><path d="M423 544C423 537.373 428.373 532 435 532 441.627 532 447 537.373 447 544 447 550.627 441.627 556 435 556 428.373 556 423 550.627 423 544Z" fill="#4472C4" fill-rule="evenodd"/><text fill="#FFFFFF" font-family="Arial,Arial_MSFontService,sans-serif" font-weight="700" font-size="24" transform="translate(281.944 478)">Wio</text><text fill="#FFFFFF" font-family="Arial,Arial_MSFontService,sans-serif" font-weight="700" font-size="24" transform="translate(332.397 478)">Terminal</text></g></svg>